<?xml version="1.0" standalone="no"?>
<!DOCTYPE svg PUBLIC "-//W3C//DTD SVG 20010904//EN"
 "http://www.w3.org/TR/2001/REC-SVG-20010904/DTD/svg10.dtd">
<svg version="1.0" xmlns="http://www.w3.org/2000/svg"
 width="500.000000pt" height="500.000000pt" viewBox="0 0 500.000000 500.000000"
 preserveAspectRatio="xMidYMid meet">
<metadata>
Created by potrace 1.11, written by Peter Selinger 2001-2013
</metadata>
<g transform="translate(0.000000,500.000000) scale(0.100000,-0.100000)"
fill="#000000" stroke="none">
<path d="M2239 4756 c-2 -2 -34 -6 -71 -10 -36 -3 -72 -8 -80 -10 -7 -3 -33
-7 -57 -10 -24 -3 -96 -19 -160 -35 -818 -209 -1456 -872 -1631 -1696 -38
-180 -45 -252 -45 -475 0 -223 7 -296 41 -460 160 -762 698 -1380 1435 -1650
81 -30 168 -56 219 -66 14 -3 33 -7 42 -10 38 -11 163 -32 248 -42 85 -9 417
-9 500 0 746 86 1404 545 1742 1215 54 107 84 174 88 198 0 3 10 26 21 52 23
53 75 238 85 298 3 22 8 43 9 46 2 3 7 28 10 55 4 27 8 56 10 64 22 80 23 481
1 595 -2 11 -11 66 -21 123 -14 78 -22 102 -34 103 -62 3 -682 1 -686 -3 -3
-2 -5 -285 -5 -629 -1 -599 -2 -626 -21 -664 -44 -88 -116 -134 -210 -135
-110 0 -201 68 -225 170 -4 19 -8 308 -8 642 -1 333 -4 610 -9 614 -4 4 -80 8
-168 8 l-162 1 -2 155 c-2 168 -8 194 -67 272 l-28 36 715 -1 c417 -1 715 2
715 7 0 16 -87 169 -147 257 -315 468 -814 813 -1353 933 -63 14 -137 28 -165
32 -27 3 -59 8 -70 11 -24 6 -450 14 -456 9z m-274 -1265 c22 -10 54 -33 70
-52 26 -29 142 -206 196 -297 16 -26 352 -561 602 -957 187 -296 188 -298 167
-399 -19 -93 -94 -161 -192 -173 -119 -14 -175 22 -275 182 -42 66 -92 145
-111 175 -49 76 -69 108 -323 512 -123 196 -227 354 -230 352 -4 -2 -18 -23
-32 -47 -13 -23 -117 -192 -231 -376 -113 -183 -206 -334 -206 -335 0 0 105
-1 233 -2 l232 0 50 -28 c85 -46 133 -136 121 -229 -9 -62 -28 -101 -73 -143
-65 -61 -73 -62 -579 -61 -456 2 -459 2 -502 25 -74 38 -117 102 -127 185 -8
63 8 102 106 261 46 76 93 152 104 170 11 18 83 135 160 259 77 125 172 280
212 345 39 64 76 122 81 127 5 6 11 15 13 21 2 5 35 59 72 119 38 61 74 119
80 130 106 174 150 226 214 245 48 14 126 10 168 -9z m914 -10 c22 -12 54 -35
70 -53 61 -66 61 -60 61 -737 -1 -487 -3 -612 -13 -599 -7 9 -31 47 -55 85
-23 37 -73 118 -111 178 -38 61 -105 166 -148 235 -43 69 -91 146 -108 171
l-30 47 1 258 c1 232 3 263 20 299 60 127 194 176 313 116z"/>
</g>
</svg>
